<mxfile host="app.diagrams.net" modified="2024-04-20T17:33:06.120Z" agent="Mozilla/5.0 (Macintosh; Intel Mac OS X 10_15_7) AppleWebKit/537.36 (KHTML, like Gecko) Chrome/122.0.0.0 Safari/537.36" version="24.2.7" etag="zGTUdH597wFImzdwXQbC" type="github">
  <diagram name="PÃ¡gina-1" id="l6iwUhqyombWtu2WKyAI">
    <mxGraphModel>
      <root>
        <mxCell id="0" />
        <mxCell id="1" parent="0" />
      </root>
    </mxGraphModel>
  </diagram>
</mxfile>
